<svg width="16" height="16" viewBox="0 0 16 16" fill="none" xmlns="http://www.w3.org/2000/svg">
<path d="M15.68 3.32L13.68 0.64C13.531 0.441286 13.3377 0.280001 13.1155 0.168917C12.8934 0.0578322 12.6484 0 12.4 0H3.6C3.35161 0 3.10663 0.0578322 2.88446 0.168917C2.66229 0.280001 2.46904 0.441286 2.32 0.64L0.32 3.32C0.114807 3.59827 0.00280711 3.93427 0 4.28V14.4C0 14.8243 0.168571 15.2313 0.468629 15.5314C0.768687 15.8314 1.17565 16 1.6 16H14.4C14.8243 16 15.2313 15.8314 15.5314 15.5314C15.8314 15.2313 16 14.8243 16 14.4V4.28C15.9972 3.93427 15.8852 3.59827 15.68 3.32ZM3.6 1.6H12.4L14.2 4H1.8L3.6 1.6ZM14.4 14.4H1.6V5.6H7.2V10.08L6.16 9.04C6.08303 8.95304 5.98716 8.88488 5.87974 8.84075C5.77233 8.79662 5.65623 8.77769 5.54036 8.78541C5.42449 8.79314 5.31193 8.82731 5.21133 8.88531C5.11072 8.94331 5.02474 9.0236 4.96 9.12C4.84379 9.28053 4.78808 9.47698 4.80272 9.67461C4.81736 9.87225 4.90141 10.0583 5.04 10.2L7.44 12.56C7.51119 12.6376 7.59774 12.6995 7.69414 12.7419C7.79054 12.7843 7.89469 12.8062 8 12.8062C8.10531 12.8062 8.20946 12.7843 8.30586 12.7419C8.40226 12.6995 8.48881 12.6376 8.56 12.56L10.96 10.2C11.0986 10.0583 11.1826 9.87225 11.1973 9.67461C11.2119 9.47698 11.1562 9.28053 11.04 9.12C10.9753 9.0236 10.8893 8.94331 10.7887 8.88531C10.6881 8.82731 10.5755 8.79314 10.4596 8.78541C10.3438 8.77769 10.2277 8.79662 10.1203 8.84075C10.0128 8.88488 9.91697 8.95304 9.84 9.04L8.8 10.08V5.6H14.4V14.4Z" fill="white"/>
</svg>
