<svg width="20" height="20" viewBox="0 0 20 20" fill="none" xmlns="http://www.w3.org/2000/svg">
<path d="M19.9674 7.551C19.9096 7.34865 19.8008 7.16897 19.6538 7.03326C19.5068 6.89755 19.3279 6.81151 19.1382 6.78536L13.4438 5.91986L10.8564 0.58258C10.7708 0.406427 10.6438 0.259273 10.4891 0.156711C10.3343 0.0541495 10.1574 0 9.97722 0C9.797 0 9.62013 0.0541495 9.46536 0.156711C9.31059 0.259273 9.18369 0.406427 9.09808 0.58258L6.55059 5.91986L0.856177 6.78536C0.668296 6.8135 0.491501 6.90043 0.346443 7.03601C0.201385 7.17158 0.0940517 7.3502 0.0369815 7.551C-0.0123333 7.74668 -0.0123271 7.95363 0.0369996 8.1493C0.0863263 8.34497 0.183079 8.52184 0.316707 8.66062L4.4027 12.7995L3.40368 18.6139C3.35487 18.8247 3.36292 19.0467 3.42683 19.2524C3.49074 19.4581 3.60769 19.6383 3.76313 19.7708C3.91857 19.9032 4.10564 19.982 4.30106 19.9973C4.49648 20.0125 4.69164 19.9637 4.86224 19.8567L9.97722 17.0605L15.0922 19.8567C15.2292 19.9304 15.3795 19.9684 15.5318 19.9677C15.6796 19.9703 15.8261 19.9366 15.9607 19.8688C16.0953 19.801 16.2147 19.7008 16.3103 19.5756C16.4058 19.4503 16.4752 19.3031 16.5133 19.1445C16.5514 18.9858 16.5574 18.8198 16.5308 18.6583L15.5318 12.8439L19.6178 8.70501C19.771 8.57145 19.8857 8.39106 19.9478 8.18603C20.0099 7.981 20.0168 7.76027 19.9674 7.551Z" fill="black"/>
</svg>
