<svg width="16" height="16" viewBox="0 0 16 16" fill="none" xmlns="http://www.w3.org/2000/svg">
<rect width="16" height="16" fill="#1E1E1E"/>
<g id="Screen 1" clip-path="url(#clip0_0_1)">
<rect width="1280" height="832" transform="translate(-454 -125)" fill="#F7F7F7"/>
<g id="Group 4">
<g id="Group 5">
<rect id="Rectangle 11" x="-114" y="-14" width="156.692" height="48" rx="24" fill="#FFB800"/>
<path id="Vector" d="M15.9732 6.05235C15.9227 5.89931 15.8309 5.7649 15.709 5.6654C15.587 5.5659 15.4401 5.5056 15.2861 5.4918L10.7403 4.79739L8.70306 0.471957C8.63764 0.330505 8.5355 0.211211 8.40833 0.127741C8.28116 0.0442708 8.13412 0 7.98404 0C7.83396 0 7.68691 0.0442708 7.55974 0.127741C7.43258 0.211211 7.33043 0.330505 7.26502 0.471957L5.22779 4.78902L0.681976 5.4918C0.534115 5.51381 0.395105 5.57878 0.280722 5.67934C0.166338 5.7799 0.0811613 5.91202 0.0348564 6.06071C-0.00752995 6.20602 -0.0113336 6.36066 0.0238536 6.50806C0.0590407 6.65545 0.13189 6.79003 0.234585 6.89735L3.53409 10.2439L2.73518 14.996C2.70666 15.1529 2.72159 15.315 2.77822 15.4633C2.83485 15.6115 2.9308 15.7397 3.05475 15.8327C3.17556 15.9231 3.31805 15.9765 3.46622 15.9868C3.6144 15.9972 3.7624 15.9641 3.8936 15.8912L7.98404 13.6574L12.0585 15.8996C12.1706 15.9658 12.2973 16.0004 12.426 16C12.5952 16.0006 12.7603 15.945 12.8973 15.841C13.0213 15.7481 13.1172 15.6199 13.1739 15.4716C13.2305 15.3234 13.2454 15.1612 13.2169 15.0044L12.418 10.2523L15.7175 6.90572C15.8329 6.80338 15.9181 6.66887 15.9634 6.51781C16.0086 6.36675 16.012 6.20535 15.9732 6.05235ZM11.0598 9.39891C10.9662 9.49381 10.8961 9.61128 10.8557 9.74107C10.8153 9.87086 10.8058 10.009 10.8282 10.1435L11.4034 13.649L8.39947 11.9758C8.28388 11.9113 8.15494 11.8776 8.02398 11.8776C7.89303 11.8776 7.76408 11.9113 7.64849 11.9758L4.64458 13.649L5.2198 10.1435C5.24212 10.009 5.23267 9.87086 5.19229 9.74107C5.1519 9.61128 5.08181 9.49381 4.98811 9.39891L2.59138 6.88899L5.9548 6.37864C6.08422 6.35978 6.20725 6.30797 6.31311 6.22775C6.41897 6.14752 6.50442 6.04133 6.56197 5.91848L7.98404 2.73088L9.48599 5.92685C9.54355 6.0497 9.629 6.15589 9.73485 6.23612C9.84071 6.31634 9.96374 6.36815 10.0932 6.387L13.4566 6.89735L11.0598 9.39891Z" fill="white"/>
</g>
</g>
</g>
<defs>
<clipPath id="clip0_0_1">
<rect width="1280" height="832" fill="white" transform="translate(-454 -125)"/>
</clipPath>
</defs>
</svg>
