<svg xmlns="http://www.w3.org/2000/svg" width="16" height="16" viewBox="0 0 16 16" fill="none">
  <path d="M12.7987 14.9334H1.06656V3.20133H8.11649L9.18305 2.13477H1.06656C0.783688 2.13477 0.512405 2.24714 0.312387 2.44716C0.112369 2.64718 0 2.91846 0 3.20133V14.9334C0 15.2163 0.112369 15.4876 0.312387 15.6876C0.512405 15.8876 0.783688 16 1.06656 16H12.7987C13.0815 16 13.3528 15.8876 13.5528 15.6876C13.7529 15.4876 13.8652 15.2163 13.8652 14.9334V6.93428L12.7987 8.00083V14.9334Z" fill="white"/>
  <path d="M15.7477 2.04945L13.9506 0.252304C13.8708 0.172328 13.776 0.108875 13.6717 0.0655804C13.5674 0.0222857 13.4556 0 13.3426 0C13.2297 0 13.1178 0.0222857 13.0135 0.0655804C12.9092 0.108875 12.8144 0.172328 12.7347 0.252304L5.42344 7.60621L4.8315 10.1713C4.80628 10.2956 4.80893 10.424 4.83926 10.5472C4.86959 10.6704 4.92685 10.7853 5.00691 10.8837C5.08697 10.9822 5.18785 11.0616 5.30228 11.1164C5.41672 11.1711 5.54188 11.1999 5.66875 11.2005C5.73432 11.2077 5.80049 11.2077 5.86606 11.2005L8.45246 10.6299L15.7477 3.26532C15.8277 3.18557 15.8911 3.09081 15.9344 2.98649C15.9777 2.88217 16 2.77033 16 2.65739C16 2.54444 15.9777 2.4326 15.9344 2.32828C15.8911 2.22396 15.8277 2.12921 15.7477 2.04945ZM7.89785 9.64333L5.94605 10.0753L6.39934 8.13948L11.9028 2.59873L13.4066 4.10257L7.89785 9.64333ZM14.0092 3.49997L12.5054 1.99612L13.3319 1.15354L14.8465 2.66805L14.0092 3.49997Z" fill="white"/>
</svg>