<svg
        xmlns="http://www.w3.org/2000/svg"
        width="53"
        height="55"
        viewBox="0 0 53 55"
        fill="none"
      >
        <path
          d="M34.1187 2.92187L12.5047 9.36718L9.10937 10.3984C6.62499 11.1719 6.45937 12.6328 7.12187 15.2109L16.4797 50.5312C17.1422 53.1094 17.8047 53.5391 20.3719 52.7656L23.7672 51.7344L45.3812 45.2891C47.8656 44.5156 49.3562 41.8516 48.6937 39.1875L39.9156 6.35937C39.2531 3.69531 36.6031 2.23437 34.1187 2.92187Z"
          fill="#3E4347"
        />
        <path
          d="M32.2969 2.40626L10.9313 9.71094L7.53594 10.8281C5.05157 11.6875 4.96876 13.1484 5.71407 15.7266L16.4797 50.6172C17.3078 53.1953 17.9703 53.5391 20.4547 52.6797L23.85 51.5625L45.2156 44.2578C47.7 43.3984 49.1078 40.6484 48.2797 38.0703L38.2594 5.58594C37.4313 3.00782 34.7813 1.63282 32.2969 2.40626Z"
          fill="#D0D0D0"
        />
        <path
          d="M30.7234 2.06249L9.60626 10.1406L23.85 51.5625L44.9672 43.4844C47.4516 42.5391 48.6938 39.7031 47.7828 37.125L36.7688 4.89843C35.9406 2.40624 33.2078 1.11718 30.7234 2.06249Z"
          fill="#42ADE2"
        />
        <path
          d="M6.29374 11.4297C3.80937 12.375 3.80937 13.8359 4.63749 16.4141L16.5625 50.875C17.4734 53.4531 18.1359 53.7969 20.6203 52.8516L23.9328 51.5625L9.60624 10.1406L6.29374 11.4297Z"
          fill="#3E4347"
        />
        <path
          d="M34.3672 18.3906L21.2828 23.4609L19.4609 18.0469L32.5453 13.0625L34.3672 18.3906Z"
          fill="white"
        />
      </svg>